<?xml version="1.0" encoding="UTF-8" standalone="no"?>
<svg
   xmlns:dc="http://purl.org/dc/elements/1.1/"
   xmlns:cc="http://creativecommons.org/ns#"
   xmlns:rdf="http://www.w3.org/1999/02/22-rdf-syntax-ns#"
   xmlns:svg="http://www.w3.org/2000/svg"
   xmlns="http://www.w3.org/2000/svg"
   xmlns:sodipodi="http://sodipodi.sourceforge.net/DTD/sodipodi-0.dtd"
   xmlns:inkscape="http://www.inkscape.org/namespaces/inkscape"
   width="148mm"
   height="210mm"
   viewBox="0 0 148 210"
   version="1.1"
   id="svg8"
   sodipodi:docname="cookies_envelope.svg"
   inkscape:version="1.0.2 (e86c8708, 2021-01-15)">
  <g
     inkscape:label="Layer 1"
     inkscape:groupmode="layer"
     id="layer1">
    <g
       transform="matrix(0.98111 0 0 1 15.9097 170.637)"
       id="g5020"
       style="fill:none;stroke:#000000;stroke-linecap:round;stroke-linejoin:round">
      <text
         xml:space="preserve"
         id="text5423"
         style="font-style:normal;font-weight:normal;font-size:10.68469999999999942px;line-height:1.25;font-family:sans-serif;white-space:pre;shape-inside:url(#rect5425);fill:#000000;fill-opacity:1;stroke:none;"><tspan
           x="-0.44335938"
           y="19.085866"><tspan>
</tspan></tspan><tspan
           style="visibility:hidden"
           x="-0.44335938"
           y="31.111257"><tspan>
</tspan></tspan><tspan
           style="visibility:hidden"
           x="-0.44335938"
           y="44.765837"><tspan> </tspan></tspan><tspan
           style="visibility:hidden"
           x="-0.44335938"
           y="58.420417"><tspan
             dx="0 6.5735946 6.4901204 6.7614117 4.5702133 3.75634 6.6570702 6.4901199 6.7614098 6.7614136 4.2154465 6.3231735">Your bounty,</tspan><tspan
             dx="3.8815536"> </tspan></tspan><tspan
           style="visibility:hidden"
           x="-0.44335938"
           y="71.776292"><tspan>
</tspan></tspan><tspan
           style="visibility:hidden"
           x="-0.44335938"
           y="85.132167"><tspan
             dx="0 6.5944633 6.7614117 6.427515 6.7614117 6.3231716 3.75634 6.3231735 6.4901199 6.7614098 3.75634 5.5719032 6.4901199 3.75634 10.39254 6.7614136 5.571907 6.7614059 3.75634 3.75634 6.4901199 4.5702133 3.75634 6.3231735 6.4901276 6.7613983 3.7563477 7.3248596 6.4901276 6.7614136 6.7613983 4.2154541 2.9424744 3.7563324 6.7614136 2.9424591 3.7563477 6.4901123 4.5702209 6.657074 6.3648987 4.5702209 3.881546">Thank you so much for you Bountiful order.
</tspan></tspan><tspan
           style="visibility:hidden"
           x="-0.44335938"
           y="98.488042"><tspan>
</tspan></tspan><tspan
           style="visibility:hidden"
           x="-0.44335938"
           y="112.14262"><tspan
             dx="0 4.5076079 6.7614121 5.5719032 2.9424667 6.7614117 6.6570683 6.3649101 6.6570663 3.75634 2.9424667 6.7614136 3.75634 6.3231735 6.4901199 6.7614059 4.5702209 3.7563324 6.4901276 4.5702133 6.6570663 6.3649063 4.5702133 3.75634 4.2154465 6.4901276 6.6570587 6.4275208 6.3231659 3.7563477 2.9424591 5.5719147 3.881546">Included in your order today is, </tspan><tspan
             dx="3.7563477"> </tspan></tspan><tspan
           style="visibility:hidden"
           x="-0.44335938"
           y="125.7972"><tspan> </tspan></tspan><tspan
           style="visibility:hidden"
           x="-0.44335938"
           y="139.45178"><tspan
             dx="0 7.3039942 6.4901209 10.39254 6.3649082 3.75634 8.7439232 6.4901199 6.7614136 6.6570702 6.3649101 4.5702133 3.75634 6.7614059 2.9424667 3.75634 6.7614136 6.4275131 6.7614136 6.6570663 3.75634 10.39254 6.4275208 6.6570587 6.3649139 3.7563477 3.7563324 4.5702209 6.3648987 5.5719147 6.7613983 3.7563477 6.657074 6.4275055 5.5719147 4.2154388 6.4275208 3.7563324 6.657074 6.3231659 3.7563477 7.4291992 6.4901276 6.657074 6.3648987 4.5702209 4.2154541 3.7563171 6.4275208 6.7614136 6.657074 3.7563477 6.7614136 6.6570435 6.7614136 6.4275208 4.5702209 6.657074 6.4901123">Some wonderful hand made fresh pasta by Robert and Eduardo.</tspan><tspan
             dx="3.8815613"> </tspan></tspan><tspan
           style="visibility:hidden"
           x="-0.44335938"
           y="153.10636"><tspan
             dx="0 4.5076079 4.2154479 3.75634 5.5719042 6.7614117 6.4901199 6.7614117 2.9424667 6.6570702 3.75634 2.9424629 6.4275169 5.571907 4.2154465 3.75634 6.4275131 6.6570663 6.4901199 6.7614136 4.2154465 3.75634 6.803154 3.75634 6.6570663 6.4275131 6.3231659 5.5719147 3.7563324 6.4275208 6.7614136 6.6570587 3.7563477 6.4901123 3.7563477 3.7563324 5.5719147 6.4901123 6.7614136 4.5702209 5.5718994 6.3649139 3.7563324 6.3231812 6.4901123 6.7614136 3.7563324 5.5719147 6.4275208 6.7614136 3.7563171 3.7563477 4.5702209 6.3648987 6.3649292 5.6136169 6.3649292 3.7563171 2.9424744 4.2154541 3.8815613 3.7563171 6.657074 6.7614136 4.2154541 3.7563477 8.743927 6.3648987 3.7563477 5.5718994 6.7614136 6.657074 6.6570435 6.3649292 5.5718994 4.2154541 3.7563171 6.3231812 6.4901123 6.7614136 3.7563477 6.3648987 6.4275208 4.2154541 3.7563477 2.9424744 4.2154236 3.7563477 6.4275208 5.5718994 3.7563477 5.5718994 6.4901123 6.4901123 6.7614136 3.7563477 6.4274902 5.5719604 3.7562866 6.6571045 6.4901123 5.5718994 5.5718994 2.9424438 6.6571045 2.9424438 6.3649292">It should last about 3 days and of course you can freeze it, but we suggest you eat it as soon as possible.</tspan><tspan
             dx="3.8815308"> </tspan></tspan><tspan
           style="visibility:hidden"
           x="-0.44335938"
           y="166.76094"><tspan> </tspan></tspan><tspan
           style="visibility:hidden"
           x="-0.44335938"
           y="180.41552"><tspan
             dx="0 6.5735946 6.4901204 6.7614117 4.5702133 3.75634 6.4901199 4.5702133 6.6570702 6.3649063 4.5702133 3.75634 10.392544 6.3649063 6.4275131 6.7614136 5.571907 3.75634 6.4275131 3.75634 2.9424667 6.4901199 4.2154465 3.75634 4.2154465 6.4901276 3.7563324 6.4901276 6.7614136 4.5702057 3.7563477 6.6570587 4.5702209 6.4901123 8.743927 2.9424591 6.7614136 6.657074 3.7563324 5.5719147 6.7614136 6.3648987 3.7563477 3.7563324 5.5719147 6.4901123 10.392532 10.392548 6.7614136 6.7614136 2.9424744 4.2154541 6.3231506 3.7563477 6.4275208 6.7614136 6.657074 3.7563171 8.743927 6.3649292 3.7563171 2.9424744 6.4901123 6.4901428 6.3231506 3.7563477 3.7563477 6.4901123 4.5702209 8.743927 6.4274902 4.5702209 6.657074 3.7563477 4.2154541 6.4901123 3.7563477 6.6570435 6.3649292 2.9424438 2.9424744 6.3231812 6.3648987 4.5702209 2.9424744 6.7614136 6.657074 3.7563171 4.2154541 6.4901123 3.7563477 6.3231812 6.4901123 6.7613831 3.7563477 6.4275513 6.6570435 6.4275513 2.9424438 6.7614136">Your order means a lot to our growing chef community and we look forward to delivering to you again,</tspan><tspan
             dx="3.8815308"> </tspan></tspan><tspan
           style="visibility:hidden"
           x="-0.44335938"
           y="194.0701"><tspan> </tspan></tspan><tspan
           style="visibility:hidden"
           x="-0.44335938"
           y="207.72468"><tspan
             dx="0 7.3248625 6.4901209 6.7614117 3.75634 6.427515 6.6570663 6.6570702 6.3649101 4.2154465 2.9424667 4.2154465 6.3649101">Bon appetite,</tspan><tspan
             dx="3.8815536"> </tspan></tspan><tspan
           style="visibility:hidden"
           x="-0.44335938"
           y="221.37926"><tspan
             dx="0 6.5944633 6.7614117 6.3649082 3.75634 7.3248634 6.4901199 6.7614136 6.7614098 4.2154465 2.9424667 3.75634 6.7614098 2.9424667 3.75634 6.5944672 6.3649063 6.4275131">The Bountiful Team</tspan><tspan
             dx="10.39254"> </tspan></tspan><tspan
           style="visibility:hidden"
           x="-0.44335938"
           y="235.03384"><tspan> </tspan></tspan><tspan
           style="visibility:hidden"
           x="-0.44335938"
           y="248.68842"><tspan
             dx="0 7.3039942 6.7614117 6.3231726 3.75634 6.6570683 6.7614098 6.3649101 5.5719032 4.2154503 2.9424667 6.4901199 6.7614136 5.5718994 3.8815536 3.75634 6.6570663 4.5702133 6.4901199 6.657074 2.9424667 6.3649063 10.39254 5.571907 3.7563324 6.4901276 4.5702057 3.7563477 5.5718994 6.7614136 6.657074 6.6570587 6.3649139 5.5718994 4.2154541 2.9424591 6.4901276 6.7614136 5.5718994 3.881546">Any questions, problems or suggestions, </tspan><tspan
             dx="3.7563477"> </tspan></tspan><tspan
           style="visibility:hidden"
           x="-0.44335938"
           y="262.04429"><tspan
             dx="0 8.2848158 6.3649092 4.2154484 3.75634 2.9424648 6.7614117 3.75634 4.2154503 6.4901199 6.7614098 5.5719032 6.7614136 3.75634 6.8031464 6.803154 6.8031464 6.8031464 6.8031464 3.75634 6.803154 6.8031464 6.8031464 6.803154 6.8031464 6.8031464">Get in touch 07930 884657t</tspan></tspan></text>
      <g
         inkscape:label="Hershey Text"
         style="fill:none;stroke:#000000;stroke-linecap:round;stroke-linejoin:round"
         transform="matrix(0.38997196,0,0,0.47620583,-9.6490641,-1.3727541)"
         id="g5939">
        <g
           transform="translate(25.6664,17.926)"
           id="g5937" />
      </g>
      <g
         inkscape:label="Hershey Text"
         style="fill:none;stroke:#000000;stroke-linecap:round;stroke-linejoin:round"
         transform="matrix(1.44806 0 0 1.44806 132.353 39.2712)"
         id="g3213">
        <g
           transform="translate(-93,-125.769)"
           id="g2613" />
        <g
           transform="translate(-93,-107.071)"
           id="g2687" />
        <g
           transform="translate(-93,-69.6741)"
           id="g2963" />
        <g
           transform="translate(-93,-44.743)"
           id="g3105" />
        <g
           transform="translate(-93,-38.5103)"
           id="g3107" />
        <g
           transform="translate(-93,-19.812)"
           id="g3131" />
        <g
           inkscape:label="Hershey Text"
           style="fill:none;stroke:#000000;stroke-linecap:round;stroke-linejoin:round"
           id="g3654"
           transform="translate(86.375532,77.3336)">
          <g
             transform="translate(-167.562,-120.676)"
             id="g3624">
            <path
               d="m 346,472 h -62 l -64,32 -31,63 31,63 95,32 h 95 l 126,-32 h 94 l 63,32 M 536,630 472,410 410,220 346,94.5 284,31.5 220,0 H 158 L 94.5,31.5 63,94.5 V 158 l 31.5,31 H 158 l 62,-31 m 95,188 h 283"
               style="stroke-width:0.2612in"
               transform="scale(0.00737865,-0.00737865)"
               id="path3596" />
            <path
               d="M 220,284 H 158 L 94.5,252 63,220 31.5,158 V 94.5 L 63,31.5 126,0 h 63 l 63,31.5 32,31.5 31,63 v 63 l -31,63 -64,32 -31,-32 v -63 l 31,-63 64,-31.5 h 94 l 63,31.5 31,32"
               style="stroke-width:0.2612in"
               transform="matrix(0.00737865,0,0,-0.00737865,4.64855,0)"
               id="path3598" />
            <path
               d="m 31.5,158 63,94 31.5,63 v -63 h 94 l 32,-32 V 158 L 220,63 V 31.5 L 252,0 h 32 l 62,31.5 32,31.5 63,95"
               style="stroke-width:0.2612in"
               transform="matrix(0.00737865,0,0,-0.00737865,7.90253,0)"
               id="path3600" />
            <path
               d="m 31.5,158 63,94 63.5,126 M 252,662 63,94.5 v -63 L 94.5,0 H 158 l 62,31.5 32,31.5 63,95 M 63,410 h 221"
               style="stroke-width:0.2612in"
               transform="matrix(0.00737865,0,0,-0.00737865,13.7169,0)"
               id="path3602" />
            <path
               d="m 31.5,158 63,94 94.5,158 31,62 32,95 v 63 L 220,662 158,630 126,567 94.5,441 63,252 31.5,0 m 0,0 31.5,94.5 31.5,63.5 63.5,94 62,32 h 64 l 31,-32 V 189 L 284,94.5 v -63 L 315,0 h 31 l 64,31.5 31,31.5 63,95"
               style="stroke-width:0.2612in"
               transform="matrix(0.00737865,0,0,-0.00737865,15.8124,0)"
               id="path3604" />
            <path
               d="m 63,63 63,31.5 32,31.5 31,63 v 63 l -31,32 H 126 L 63,252 31.5,189 V 94.5 L 63,31.5 126,0 h 63 l 63,31.5 32,31.5 62,95"
               style="stroke-width:0.2612in"
               transform="matrix(0.00737865,0,0,-0.00737865,19.2952,0)"
               id="path3606" />
            <path
               d="m 31.5,158 63,94 31.5,63 v -63 h 94 l 32,-32 V 158 L 220,63 V 31.5 L 252,0 h 32 l 62,31.5 32,31.5 63,95"
               style="stroke-width:0.2612in"
               transform="matrix(0.00737865,0,0,-0.00737865,24.4086,0)"
               id="path3608" />
            <path
               d="m 63,63 63,31.5 32,31.5 31,63 v 63 l -31,32 H 126 L 63,252 31.5,189 V 94.5 L 63,31.5 126,0 h 63 l 63,31.5 32,31.5 62,95"
               style="stroke-width:0.2612in"
               transform="matrix(0.00737865,0,0,-0.00737865,27.4338,0)"
               id="path3610" />
            <path
               d="m 31.5,158 63,94 31.5,63 v -63 l 63,-94 31,-63.5 v -63 L 158,0 M 31.5,31.5 94.5,0 H 220 l 64,31.5 31,31.5 63,95"
               style="stroke-width:0.2612in"
               transform="matrix(0.00737865,0,0,-0.00737865,29.7581,0)"
               id="path3612" />
            <path
               d="m 126,441 v -31 h 32 v 31 H 126 M 31.5,158 94.5,284 31.5,94.5 v -63 L 63,0 h 31.5 l 63.5,31.5 31,31.5 63,95"
               style="stroke-width:0.2612in"
               transform="matrix(0.00737865,0,0,-0.00737865,32.3111,0)"
               id="path3614" />
            <path
               d="m 315,189 -31,63 -64,32 H 158 L 94.5,252 63,220 31.5,158 V 94.5 L 63,31.5 126,0 h 63 l 63,31.5 32,63 L 472,662 M 346,284 315,126 V 31.5 L 346,0 h 32 l 63,31.5 31,31.5 64,95"
               style="stroke-width:0.2612in"
               transform="matrix(0.00737865,0,0,-0.00737865,33.9344,0)"
               id="path3616" />
            <path
               d="m 63,63 63,31.5 32,31.5 31,63 v 63 l -31,32 H 126 L 63,252 31.5,189 V 94.5 L 63,31.5 126,0 h 63 l 63,31.5 32,31.5 62,95"
               style="stroke-width:0.2612in"
               transform="matrix(0.00737865,0,0,-0.00737865,37.6533,0)"
               id="path3618" />
            <path
               d="m 31.5,158 63,94 63.5,32 31,-32 V 220 L 158,94.5 126,0 m 32,94.5 31,63.5 63,94 63,32 h 63 l 32,-32 V 189 L 378,94.5 v -63 L 410,0 h 31 l 63,31.5 32,31.5 62,95"
               style="stroke-width:0.2612in"
               transform="matrix(0.00737865,0,0,-0.00737865,39.9775,0)"
               id="path3620" />
            <path
               d="m 31.5,158 63,94 63.5,126 M 252,662 63,94.5 v -63 L 94.5,0 H 158 l 62,31.5 32,31.5 63,95 M 63,410 h 221"
               style="stroke-width:0.2612in"
               transform="matrix(0.00737865,0,0,-0.00737865,44.1612,0)"
               id="path3622" />
          </g>
          <g
             transform="translate(-167.562,-111.453)"
             id="g3652">
            <path
               d="m 252,220 v 32 l -32,32 H 158 L 94.5,252 63,220 31.5,158 V 94.5 L 63,31.5 126,0 h 94 l 95,63 63,95"
               style="stroke-width:0.2612in"
               transform="scale(0.00737865,-0.00737865)"
               id="path3626" />
            <path
               d="M 220,284 H 158 L 94.5,252 63,220 31.5,158 V 94.5 L 63,31.5 126,0 h 63 l 63,31.5 32,31.5 31,63 v 63 l -31,63 -64,32 -31,-32 v -63 l 31,-63 64,-31.5 h 94 l 63,31.5 31,32"
               style="stroke-width:0.2612in"
               transform="matrix(0.00737865,0,0,-0.00737865,2.55301,0)"
               id="path3628" />
            <path
               d="M 220,284 H 158 L 94.5,252 63,220 31.5,158 V 94.5 L 63,31.5 126,0 h 63 l 63,31.5 32,31.5 31,63 v 63 l -31,63 -64,32 -31,-32 v -63 l 31,-63 64,-31.5 h 94 l 63,31.5 31,32"
               style="stroke-width:0.2612in"
               transform="matrix(0.00737865,0,0,-0.00737865,5.807,0)"
               id="path3630" />
            <path
               d="m 31.5,158 63,94 94.5,158 31,62 32,95 v 63 L 220,662 158,630 126,567 94.5,441 63,252 31.5,0 m 0,0 31.5,94.5 31.5,63.5 63.5,94 62,32 h 64 l 31,-32 v -63 l -63,-31 h -94 m 0,0 62,-32 L 252,31.5 284,0 h 31 l 63,31.5 32,31.5 62,95"
               style="stroke-width:0.2612in"
               transform="matrix(0.00737865,0,0,-0.00737865,9.06098,0)"
               id="path3632" />
            <path
               d="m 126,441 v -31 h 32 v 31 H 126 M 31.5,158 94.5,284 31.5,94.5 v -63 L 63,0 h 31.5 l 63.5,31.5 31,31.5 63,95"
               style="stroke-width:0.2612in"
               transform="matrix(0.00737865,0,0,-0.00737865,12.315,0)"
               id="path3634" />
            <path
               d="m 63,63 63,31.5 32,31.5 31,63 v 63 l -31,32 H 126 L 63,252 31.5,189 V 94.5 L 63,31.5 126,0 h 63 l 63,31.5 32,31.5 62,95"
               style="stroke-width:0.2612in"
               transform="matrix(0.00737865,0,0,-0.00737865,13.9383,0)"
               id="path3636" />
            <path
               d="m 31.5,158 63,94 63.5,32 31,-32 V 220 L 158,94.5 126,0 m 32,94.5 31,63.5 63,94 63,32 h 63 l 32,-32 V 220 L 378,94.5 346,0 m 32,94.5 32,63.5 62,94 64,32 h 62 l 32,-32 V 189 L 598,94.5 v -63 L 630,0 h 32 l 62,31.5 32,31.5 63,95"
               style="stroke-width:0.2612in"
               transform="matrix(0.00737865,0,0,-0.00737865,19.0517,0)"
               id="path3638" />
            <path
               d="M 220,284 H 158 L 94.5,252 63,220 31.5,158 V 94.5 L 63,31.5 126,0 h 63 l 63,31.5 32,31.5 31,63 v 63 l -31,63 -64,32 -31,-32 v -63 l 31,-63 64,-31.5 h 94 l 63,31.5 31,32"
               style="stroke-width:0.2612in"
               transform="matrix(0.00737865,0,0,-0.00737865,24.8661,0)"
               id="path3640" />
            <path
               d="m 31.5,158 63,94 63.5,32 31,-32 V 220 L 158,94.5 126,0 m 32,94.5 31,63.5 63,94 63,32 h 63 l 32,-32 V 189 L 378,94.5 v -63 L 410,0 h 31 l 63,31.5 32,31.5 62,95"
               style="stroke-width:0.2612in"
               transform="matrix(0.00737865,0,0,-0.00737865,28.12,0)"
               id="path3642" />
            <path
               d="m 31.5,158 63,94 31.5,63 v -63 l 63,-94 31,-63.5 v -63 L 158,0 M 31.5,31.5 94.5,0 H 220 l 64,31.5 31,31.5 63,95"
               style="stroke-width:0.2612in"
               transform="matrix(0.00737865,0,0,-0.00737865,32.3037,0)"
               id="path3644" />
            <path
               d="m 31.5,158 63,94 63.5,126 M 252,662 63,94.5 v -63 L 94.5,0 H 158 l 62,31.5 32,31.5 63,95 M 63,410 h 221"
               style="stroke-width:0.2612in"
               transform="matrix(0.00737865,0,0,-0.00737865,34.8567,0)"
               id="path3646" />
            <path
               d="m 63,63 63,31.5 32,31.5 31,63 v 63 l -31,32 H 126 L 63,252 31.5,189 V 94.5 L 63,31.5 126,0 h 63 l 63,31.5 32,31.5 62,95"
               style="stroke-width:0.2612in"
               transform="matrix(0.00737865,0,0,-0.00737865,36.9523,0)"
               id="path3648" />
            <path
               d="m 31.5,158 63,94 31.5,63 v -63 h 94 l 32,-32 V 158 L 220,63 V 31.5 L 252,0 h 32 l 62,31.5 32,31.5 63,95"
               style="stroke-width:0.2612in"
               transform="matrix(0.00737865,0,0,-0.00737865,39.2766,0)"
               id="path3650" />
          </g>
        </g>
      </g>
    </g>
    <g
       transform="matrix(0.98111,0,0,1,15.919792,68.162088)"
       id="g22101"
       style="fill:none;stroke:#000000;stroke-linecap:round;stroke-linejoin:round" />
  </g>
  <metadata
     id="metadata5">
    <rdf:RDF>
      <cc:Work
         rdf:about="">
        <dc:format>image/svg+xml</dc:format>
        <dc:type
           rdf:resource="http://purl.org/dc/dcmitype/StillImage" />
        <dc:title></dc:title>
      </cc:Work>
    </rdf:RDF>
  </metadata>
  <sodipodi:namedview
     id="base"
     pagecolor="#ffffff"
     bordercolor="#666666"
     borderopacity="1.0"
     inkscape:pageopacity="0.0"
     inkscape:pageshadow="2"
     inkscape:zoom="0.98901497"
     inkscape:cx="110.84103"
     inkscape:cy="380.75955"
     inkscape:document-units="mm"
     inkscape:current-layer="g3213"
     inkscape:document-rotation="0"
     showgrid="false"
     inkscape:window-width="1876"
     inkscape:window-height="1005"
     inkscape:window-x="45"
     inkscape:window-y="23"
     inkscape:window-maximized="0"
     showguides="false" />
  <defs
     id="defs2">
    <rect
       x="-167.56292"
       y="-127.40743"
       width="80.333956"
       height="25.10769"
       id="rect3174" />
    <rect
       x="-140.30178"
       y="-111.34475"
       width="31.801756"
       height="9.16731"
       id="rect4413" />
    <rect
       x="-92.999551"
       y="-136.55059"
       width="92.549025"
       height="145.79682"
       id="rect2480" />
    <rect
       x="27.214287"
       y="48.380951"
       width="55.940475"
       height="72.571426"
       id="rect837" />
    <rect
       x="-0.44256446"
       y="9.3373156"
       width="51.790344"
       height="12.026515"
       id="rect5425" />
    <rect
       x="-0.44256446"
       y="9.3373156"
       width="51.790344"
       height="12.026515"
       id="rect15625" />
  </defs>
  <WCB
     layer="-1"
     node="0"
     lastpath="0"
     lastpathnc="0"
     lastknownposx="0"
     lastknownposy="0"
     pausedposx="0"
     pausedposy="0"
     randseed="0"
     row="0"
     application="Axidraw" />
</svg>
