<?xml version="1.0" encoding="UTF-8" standalone="no"?>
<svg
   xmlns:dc="http://purl.org/dc/elements/1.1/"
   xmlns:cc="http://creativecommons.org/ns#"
   xmlns:rdf="http://www.w3.org/1999/02/22-rdf-syntax-ns#"
   xmlns:svg="http://www.w3.org/2000/svg"
   xmlns="http://www.w3.org/2000/svg"
   xmlns:sodipodi="http://sodipodi.sourceforge.net/DTD/sodipodi-0.dtd"
   xmlns:inkscape="http://www.inkscape.org/namespaces/inkscape"
   width="148mm"
   height="210mm"
   viewBox="0 0 148 210"
   version="1.1"
   id="svg8"
   sodipodi:docname="cookies_envelope_stu.svg"
   inkscape:version="1.0.2 (e86c8708, 2021-01-15)">
  <g
     inkscape:label="Layer 1"
     inkscape:groupmode="layer"
     id="layer1">
    <g
       transform="matrix(0.98111,0,0,1,15.9097,165.3453)"
       id="g5020"
       style="fill:none;stroke:#000000;stroke-linecap:round;stroke-linejoin:round">
      <g
         inkscape:label="Hershey Text"
         style="fill:none;stroke:#000000;stroke-linecap:round;stroke-linejoin:round"
         transform="matrix(1.44806,0,0,1.44806,132.353,39.2712)"
         id="g3213">
        <g
           inkscape:label="Hershey Text"
           style="fill:none;stroke:#000000;stroke-linecap:round;stroke-linejoin:round"
           id="g3654"
           transform="translate(86.3755,77.3336)">
          <path
             class="st0"
             d="m -123.51722,-118.61778 c 0.0209,0.0461 0.0404,0.0934 0.0639,0.13941 0.0678,0.12918 0.16035,0.25069 0.19945,0.38755 0.0756,0.26859 0.13428,0.54229 0.17469,0.81856 0.043,0.30057 0.11733,0.6037 0.0352,0.91193"
             id="path10114"
             style="fill:none;stroke:#000000;stroke-width:0.258253;stroke-linecap:round;stroke-linejoin:round;stroke-miterlimit:10" />
          <path
             class="st0"
             d="m -123.29691,-116.53171 c -0.005,0.0512 -0.0104,0.1036 -0.0156,0.15476"
             id="path10188"
             style="fill:none;stroke:#000000;stroke-width:0.258253;stroke-linecap:round;stroke-linejoin:round;stroke-miterlimit:10" />
          <path
             class="st0"
             d="m -123.56415,-116.33091 c 0.16295,-0.0102 0.3259,-0.0294 0.48886,-0.0269 0.0821,0.001 0.11863,0.0704 0.10951,0.15092 -0.0547,0.49626 0.0913,0.95031 0.29983,1.39157 0.0183,0.0396 0.0313,0.0819 0.0482,0.12406"
             id="path10138"
             style="fill:none;stroke:#000000;stroke-width:0.258253;stroke-linecap:round;stroke-linejoin:round;stroke-miterlimit:10" />
          <path
             class="st0"
             d="m -120.99729,-116.28487 c -0.15774,0.005 -0.31548,0.0153 -0.47322,0.0141 -0.31027,-0.001 -0.61923,-0.0115 -0.92949,-0.0128 -0.18382,-0.001 -0.36763,0.009 -0.55144,0.0141"
             id="path10136"
             style="fill:none;stroke:#000000;stroke-width:0.258253;stroke-linecap:round;stroke-linejoin:round;stroke-miterlimit:10" />
          <path
             class="st0"
             d="m -123.52504,-118.51034 c -0.16296,0.0499 -0.15514,0.20208 -0.10299,0.37091"
             id="path10184"
             style="fill:none;stroke:#000000;stroke-width:0.258253;stroke-linecap:round;stroke-linejoin:round;stroke-miterlimit:10" />
          <path
             class="st0"
             d="m -125.73862,-115.72849 c 0.005,0.0307 0.0248,0.0678 0.013,0.0921 -0.0978,0.21232 -0.0626,0.43103 -0.0443,0.64974 0.003,0.0358 -0.003,0.0819 0.0169,0.10616 0.16034,0.19441 0.0834,0.39137 0.0143,0.58962 -0.009,0.0243 -0.0104,0.0512 -0.0156,0.0767"
             id="path10156"
             style="fill:none;stroke:#000000;stroke-width:0.258253;stroke-linecap:round;stroke-linejoin:round;stroke-miterlimit:10" />
          <path
             class="st0"
             d="m -125.64345,-114.73854 c 0.12385,-0.0537 0.16426,-0.16371 0.20597,-0.27755 0.0834,-0.22126 0.13819,-0.45532 0.31287,-0.63566 0.1056,-0.10872 0.20207,-0.10744 0.29984,0.0167 0.15122,0.19057 0.30896,0.37731 0.45497,0.573 0.19946,0.26603 0.34937,0.55253 0.34937,0.8953 0,0.0768 0.0287,0.15476 0.0443,0.2315"
             id="path10128"
             style="fill:none;stroke:#000000;stroke-width:0.258253;stroke-linecap:round;stroke-linejoin:round;stroke-miterlimit:10" />
          <path
             class="st0"
             d="m -127.21954,-115.66582 c -0.0365,0.0934 -0.0769,0.18418 -0.10951,0.27882 -0.0209,0.0601 -0.043,0.12278 -0.0469,0.18546 -0.0118,0.1944 0.14079,0.29033 0.31287,0.2008 0.16035,-0.0844 0.33503,-0.14453 0.44323,-0.30824 0.0887,-0.13302 0.0769,-0.38626 -0.0326,-0.49625 -0.21118,-0.21232 -0.51493,-0.21999 -0.72221,-0.0269 -0.26333,0.24556 -0.52145,0.50009 -0.7548,0.7738 -0.20337,0.23789 -0.22814,0.54358 -0.14732,0.82752 0.0287,0.10103 0.20728,0.19568 0.33504,0.22638 0.16426,0.0384 0.34546,0.0192 0.51754,0.006 0.22162,-0.0153 0.44193,-0.0473 0.66225,-0.0767 0.0326,-0.004 0.0626,-0.041 0.0952,-0.0422 0.0573,-0.003 0.11602,0.008 0.17338,0.0128"
             id="path10130"
             style="fill:none;stroke:#000000;stroke-width:0.258253;stroke-linecap:round;stroke-linejoin:round;stroke-miterlimit:10" />
          <path
             class="st0"
             d="m -130.05495,-115.72849 c -0.12646,0.0204 -0.26334,0.0166 -0.37545,0.0678 -0.14861,0.0678 -0.29201,0.16371 -0.40934,0.27626 -0.17208,0.16627 -0.33895,0.34406 -0.47062,0.54102 -0.11602,0.17395 -0.17207,0.37859 -0.18642,0.59858 -0.0169,0.2622 0.23466,0.34533 0.43151,0.24557 0.33634,-0.17267 0.60097,-0.42336 0.80695,-0.73799 0.10559,-0.15988 0.23857,-0.30057 0.35981,-0.45021"
             id="path10126"
             style="fill:none;stroke:#000000;stroke-width:0.258253;stroke-linecap:round;stroke-linejoin:round;stroke-miterlimit:10" />
          <path
             class="st0"
             d="m -130.10189,-115.99069 c 0.0339,0.12662 0.0743,0.24557 0.14992,0.3594 0.0573,0.0857 0.0496,0.21232 0.0704,0.31975 0.006,0.0307 0,0.078 0.0169,0.0908 0.25682,0.16756 0.37284,0.45661 0.59446,0.65358 0.20467,0.18161 0.43932,0.30312 0.69614,0.37986 0.0847,0.0255 0.18773,-0.005 0.28158,-0.0102"
             id="path10120"
             style="fill:none;stroke:#000000;stroke-width:0.258253;stroke-linecap:round;stroke-linejoin:round;stroke-miterlimit:10" />
          <path
             class="st0"
             d="m -129.77076,-117.84526 c 0.19163,0.0601 0.1799,0.22767 0.18512,0.37092 0.008,0.19057 0.004,0.38242 -0.0156,0.57172 -0.0326,0.31463 -0.0782,0.62927 -0.12516,0.94262 -0.0209,0.1343 -0.073,0.2558 -0.219,0.30952"
             id="path10124"
             style="fill:none;stroke:#000000;stroke-width:0.258253;stroke-linecap:round;stroke-linejoin:round;stroke-miterlimit:10" />
          <path
             class="st0"
             d="m -132.37021,-115.72849 c 0.0104,0.19568 0.0287,0.39137 0.0287,0.58706 0,0.19569 -0.009,0.39266 -0.0326,0.58707 -0.0156,0.12534 0.0157,0.24045 0.11863,0.28394 0.06,0.0255 0.16426,-0.0499 0.24769,-0.0831 0.0287,-0.0115 0.0521,-0.0307 0.0795,-0.0461"
             id="path10160"
             style="fill:none;stroke:#000000;stroke-width:0.258253;stroke-linecap:round;stroke-linejoin:round;stroke-miterlimit:10" />
          <path
             class="st0"
             d="m -134.46646,-116.36928 c -0.35067,-0.0998 -0.3963,-0.0575 -0.41195,0.30185 -0.013,0.28906 0.14341,0.50265 0.30636,0.70857 0.16295,0.2072 0.34937,0.39777 0.53318,0.58962 0.32983,0.34534 0.14471,0.60242 -0.12645,0.7738 -0.41977,0.26604 -0.81347,0.14069 -1.19674,-0.0793 -0.13036,-0.0755 -0.14339,-0.18417 -0.0639,-0.30696 0.03,-0.0473 0.0626,-0.0934 0.0939,-0.13941"
             id="path10102"
             style="fill:none;stroke:#000000;stroke-width:0.258253;stroke-linecap:round;stroke-linejoin:round;stroke-miterlimit:10" />
          <path
             class="st0"
             d="m -137.31751,-114.26019 c 0.0613,0.14453 0.16947,0.18929 0.32982,0.20848 0.27637,0.032 0.54753,0.1036 0.81999,0.16499 0.10168,0.023 0.19946,0.0601 0.29984,0.0908"
             id="path10142"
             style="fill:none;stroke:#000000;stroke-width:0.258253;stroke-linecap:round;stroke-linejoin:round;stroke-miterlimit:10" />
          <path
             class="st0"
             d="m -137.36444,-114.27554 c 0.0104,-0.0255 0.0313,-0.0524 0.03,-0.0767 -0.013,-0.21615 0.0808,-0.3287 0.30114,-0.33894 0.14339,-0.006 0.25942,-0.0793 0.34285,-0.17394 0.24639,-0.28011 0.47844,-0.57172 0.71179,-0.86333 0.11733,-0.14581 0.0639,-0.32104 0.0417,-0.47707 -0.0195,-0.13046 -0.23335,-0.16627 -0.35328,-0.0601 -0.0965,0.0844 -0.176,0.18929 -0.25291,0.29161 -0.10559,0.14069 -0.20337,0.28522 -0.29983,0.43231 -0.0678,0.10488 -0.12516,0.21615 -0.19033,0.32358 -0.0508,0.0831 -0.0926,0.17651 -0.16035,0.2443 -0.0991,0.0985 -0.1043,0.18929 -0.0287,0.29673"
             id="path10086"
             style="fill:none;stroke:#000000;stroke-width:0.258253;stroke-linecap:round;stroke-linejoin:round;stroke-miterlimit:10" />
          <path
             class="st0"
             d="m -137.2067,-115.86663 c -0.14731,-0.041 -0.29202,-0.10744 -0.44193,-0.11766 -0.26985,-0.0179 -0.46931,-0.16244 -0.65703,-0.31976 -0.10821,-0.0908 -0.22684,-0.13557 -0.35199,-0.1765 -0.0325,-0.0102 -0.0991,0.0153 -0.12253,0.0448 -0.13429,0.17139 -0.20859,0.36452 -0.22684,0.58451 -0.0222,0.27882 -0.0834,0.55636 -0.10299,0.83519 -0.0209,0.29801 -0.0183,0.5973 -0.0183,0.89658 0,0.12918 0.0195,0.25709 0.03,0.38626"
             id="path10096"
             style="fill:none;stroke:#000000;stroke-width:0.258253;stroke-linecap:round;stroke-linejoin:round;stroke-miterlimit:10" />
          <path
             class="st0"
             d="m -140.31066,-109.20554 c 0.0209,0.16243 0.0417,0.32486 0.0639,0.4873 0,0.003 0.0104,0.004 0.0156,0.008 0.28289,0.24173 0.27246,0.59602 0.36241,0.91193 0.0339,0.11767 0.0496,0.24174 0.0978,0.35429 0.0965,0.2251 0.16295,0.46684 0.34416,0.64974 0.14861,0.15092 0.3233,0.19057 0.5019,0.0895 0.0952,-0.0537 0.19424,-0.12663 0.24899,-0.21616 0.18512,-0.29673 0.36241,-0.59985 0.52015,-0.91193 0.0795,-0.15732 0.11342,-0.33638 0.16035,-0.50777 0.0313,-0.11255 0.10299,-0.18418 0.20597,-0.2315"
             id="path10106"
             style="fill:none;stroke:#000000;stroke-width:0.258253;stroke-linecap:round;stroke-linejoin:round;stroke-miterlimit:10" />
          <path
             class="st0"
             d="m -137.58475,-109.11218 c 0.0156,0.0934 0.0313,0.18546 0.0469,0.27883"
             id="path10178"
             style="fill:none;stroke:#000000;stroke-width:0.258253;stroke-linecap:round;stroke-linejoin:round;stroke-miterlimit:10" />
          <path
             class="st0"
             d="m -137.6004,-109.14415 c -0.18381,0.087 -0.29592,0.39777 -0.16817,0.55253 0.12906,0.15348 0.12515,0.3108 0.1056,0.48347 -0.03,0.26731 -0.0522,0.5359 -0.0795,0.80322 -0.0404,0.38626 -0.0874,0.77252 -0.12515,1.15878 -0.0274,0.27754 -0.0678,0.55765 -0.0573,0.83391 0.0104,0.2686 0.0795,0.53591 0.11732,0.8045 0.0156,0.11383 0.0913,0.14964 0.19033,0.17267 0.0222,0.005 0.0378,0.0384 0.0561,0.0601"
             id="path10082"
             style="fill:none;stroke:#000000;stroke-width:0.258253;stroke-linecap:round;stroke-linejoin:round;stroke-miterlimit:10" />
          <path
             class="st0"
             d="m -135.22257,-106.22289 c -0.0313,-0.0563 -0.0795,-0.11 -0.0913,-0.17011 -0.0365,-0.18034 -0.16948,-0.26603 -0.31809,-0.33894 -0.11732,-0.0576 -0.24117,-0.023 -0.32721,0.11 -0.0534,0.0819 -0.086,0.18162 -0.11081,0.27626 -0.0534,0.20464 -0.086,0.4144 -0.14601,0.61649 -0.0873,0.29545 -0.10298,0.59601 -0.0873,0.89658 0.006,0.14837 0.0808,0.27243 0.24769,0.32743 0.16687,0.055 0.33504,0.0294 0.43542,-0.0844 0.20206,-0.22894 0.42498,-0.4451 0.47322,-0.78148 0.0339,-0.2315 0.0391,-0.45277 0.009,-0.68171 -0.0104,-0.0806 0.008,-0.16499 0.013,-0.24685"
             id="path10076"
             style="fill:none;stroke:#000000;stroke-width:0.258253;stroke-linecap:round;stroke-linejoin:round;stroke-miterlimit:10" />
          <path
             class="st0"
             d="m -132.5436,-104.44507 c -0.0209,-0.13429 -0.0417,-0.26731 -0.0626,-0.40161 -0.0521,-0.3351 -0.0795,-0.67659 -0.16817,-1.00146 -0.0469,-0.17523 -0.19163,-0.32743 -0.30765,-0.47963 -0.0613,-0.0793 -0.15774,-0.0614 -0.23205,-0.001 -0.0482,0.0396 -0.0887,0.0883 -0.12645,0.13813 -0.16948,0.21999 -0.33243,0.44638 -0.50712,0.66253 -0.0574,0.0703 -0.1434,0.11895 -0.22683,0.18673 -0.11472,-0.14964 -0.20206,-0.26859 -0.17078,-0.44893 0.0118,-0.0716 -0.0456,-0.15348 -0.073,-0.23022"
             id="path10092"
             style="fill:none;stroke:#000000;stroke-width:0.258253;stroke-linecap:round;stroke-linejoin:round;stroke-miterlimit:10" />
          <path
             class="st0"
             d="m -132.51231,-104.44507 c -0.0157,0.0153 -0.0469,0.0345 -0.0443,0.0461 0.0274,0.11895 0.043,0.24685 0.0991,0.35173 0.0261,0.0486 0.13427,0.055 0.20467,0.0806"
             id="path10166"
             style="fill:none;stroke:#000000;stroke-width:0.258253;stroke-linecap:round;stroke-linejoin:round;stroke-miterlimit:10" />
          <path
             class="st0"
             d="m -130.42519,-106.67055 c -0.0287,0.0307 -0.0522,0.078 -0.0873,0.0895 -0.23335,0.0755 -0.36632,0.25581 -0.50321,0.43487 -0.0195,0.0269 -0.0365,0.0588 -0.0639,0.0755 -0.10429,0.0665 -0.16556,0.15859 -0.15513,0.27882 0.013,0.14837 0.0847,0.28906 0.20598,0.3658 0.19163,0.12278 0.40673,0.20976 0.6114,0.31463 0.16817,0.0857 0.34546,0.16116 0.5019,0.26604 0.13949,0.0947 0.12906,0.24685 0.003,0.35045 -0.17468,0.14325 -0.38848,0.14069 -0.59836,0.15348 -0.0417,0.003 -0.0847,-0.0166 -0.12516,-0.0128 -0.0991,0.0102 -0.13818,-0.0448 -0.15773,-0.12534"
             id="path10104"
             style="fill:none;stroke:#000000;stroke-width:0.258253;stroke-linecap:round;stroke-linejoin:round;stroke-miterlimit:10" />
          <path
             class="st0"
             d="m -127.88049,-106.60915 c 0.1421,0.0205 0.28419,0.0371 0.42498,0.0627 0.20598,0.0371 0.40805,0.0947 0.61532,0.11894 0.2138,0.0256 0.4302,0.0333 0.6453,0.032 0.15774,-0.001 0.31548,-0.0281 0.47322,-0.0435"
             id="path10132"
             style="fill:none;stroke:#000000;stroke-width:0.258253;stroke-linecap:round;stroke-linejoin:round;stroke-miterlimit:10" />
          <path
             class="st0"
             d="m -124.93558,-106.56311 c 0.0261,-0.0614 0.0417,-0.13046 0.0808,-0.18418 0.13558,-0.18545 0.2881,-0.35172 0.53318,-0.40544 0.0965,-0.0205 0.18773,-0.0691 0.2842,-0.0882 0.0756,-0.0141 0.17599,-0.0243 0.20076,0.0755 0.0195,0.078 0.0352,0.1829 -10e-4,0.24301 -0.14471,0.23278 -0.38197,0.34533 -0.64009,0.42079 -0.13036,0.0384 -0.25942,0.0793 -0.37936,-0.0294 -0.0144,-0.0128 -0.0469,-0.0217 -0.0613,-0.0141 -0.0496,0.0256 -0.11732,0.0499 -0.13949,0.0921 -0.0926,0.18674 -0.17729,0.37731 -0.2542,0.57044 -0.0469,0.11895 -0.0873,0.24429 -0.10951,0.37091 -0.0274,0.16116 0.13819,0.41824 0.28941,0.42719 0.16425,0.009 0.33112,-0.0192 0.49538,-0.0435 0.0704,-0.0102 0.13688,-0.0486 0.20467,-0.0742"
             id="path10110"
             style="fill:none;stroke:#000000;stroke-width:0.258253;stroke-linecap:round;stroke-linejoin:round;stroke-miterlimit:10" />
          <path
             class="st0"
             d="m -121.34276,-107.25761 c -0.2164,-0.0921 -0.44845,-0.10616 -0.67788,-0.1036 -0.29463,0.004 -0.51495,0.15732 -0.6792,0.39649 -0.18512,0.26987 -0.2868,0.57172 -0.3585,0.88252 -0.0482,0.2072 -0.0691,0.42079 -0.0965,0.63311 -0.0169,0.13302 -0.0222,0.26731 -0.0325,0.40161"
             id="path10088"
             style="fill:none;stroke:#000000;stroke-width:0.258253;stroke-linecap:round;stroke-linejoin:round;stroke-miterlimit:10" />
          <path
             class="st0"
             d="m -121.20197,-107.28959 c 0.006,0.11384 -0.0547,0.0729 -0.1108,0.0461"
             id="path10190"
             style="fill:none;stroke:#000000;stroke-width:0.258253;stroke-linecap:round;stroke-linejoin:round;stroke-miterlimit:10" />
          <path
             class="st0"
             d="m -118.33396,-102.55981 c -0.0313,0.0435 -0.0547,0.0972 -0.0965,0.12918 -0.13036,0.1036 -0.19814,0.23534 -0.19945,0.3965 0,0.0512 0.026,0.12918 0.0626,0.14708 0.043,0.0205 0.12645,0.005 0.16687,-0.0269 0.21118,-0.16243 0.38457,-0.33766 0.34025,-0.64718 -0.0365,-0.24812 -0.28029,-0.45149 -0.51103,-0.45916 -0.14731,-0.004 -0.30244,-0.0422 -0.44323,0.0704 -0.12776,0.10232 -0.1421,0.12534 -0.0639,0.25196 0.0339,0.0563 0.0352,0.13174 0.0508,0.19953"
             id="path10118"
             style="fill:none;stroke:#000000;stroke-width:0.258253;stroke-linecap:round;stroke-linejoin:round;stroke-miterlimit:10" />
          <path
             class="st0"
             d="m -116.20773,-110.87465 c -0.0365,0.29417 -0.0704,0.58834 -0.11081,0.88124 -0.0365,0.26347 -0.0482,0.53718 -0.13297,0.78531 -0.15774,0.463 -0.26073,0.93623 -0.36763,1.40947 -0.0365,0.16115 -0.0391,0.3287 -0.0573,0.4937"
             id="path10084"
             style="fill:none;stroke:#000000;stroke-width:0.258253;stroke-linecap:round;stroke-linejoin:round;stroke-miterlimit:10" />
          <path
             class="st0"
             d="m -128.02258,-109.391 c -0.15514,0.0473 -0.20338,0.17778 -0.23336,0.30952 -0.0287,0.12151 -0.0339,0.24685 -0.0496,0.37091"
             id="path10162"
             style="fill:none;stroke:#000000;stroke-width:0.258253;stroke-linecap:round;stroke-linejoin:round;stroke-miterlimit:10" />
          <path
             class="st0"
             d="m -127.97566,-109.63785 c -0.0104,0.046 -0.0287,0.0934 -0.0287,0.13941 0,0.0461 0.006,0.10104 0.0313,0.13814 0.0939,0.13813 0.11212,0.29033 0.1082,0.45021 -0.006,0.27243 -0.0118,0.54613 -0.0156,0.81856 -0.005,0.30952 -0.006,0.61777 -0.0183,0.92729 -0.004,0.11383 -0.0547,0.23022 -0.0404,0.33893 0.0404,0.30441 -0.03,0.61009 0.0274,0.91194 0.0469,0.24813 0.0952,0.49625 0.16034,0.74055 0.0287,0.10871 0.0639,0.21231 0.043,0.32614"
             id="path10122"
             style="fill:none;stroke:#000000;stroke-width:0.258253;stroke-linecap:round;stroke-linejoin:round;stroke-miterlimit:10" />
          <path
             class="st0"
             d="m -140.26372,-108.67987 c -0.13297,0.0729 -0.12646,0.21232 -0.13689,0.32487 -0.0665,0.71496 -0.11732,1.43249 -0.1799,2.14746 -0.0169,0.19696 -0.0613,0.39137 -0.0926,0.58706 -0.043,0.27755 -0.0925,0.55509 -0.12384,0.8352 -0.0339,0.30312 -0.0496,0.60752 -0.073,0.91193"
             id="path10074"
             style="fill:none;stroke:#000000;stroke-width:0.258253;stroke-linecap:round;stroke-linejoin:round;stroke-miterlimit:10" />
          <path
             class="st0"
             d="m -148.20287,-104.01276 c -0.12645,0.0307 -0.26202,0.10743 -0.37545,0.0831 -0.18771,-0.0396 -0.35067,0.003 -0.52276,0.0409"
             id="path10168"
             style="fill:none;stroke:#000000;stroke-width:0.258253;stroke-linecap:round;stroke-linejoin:round;stroke-miterlimit:10" />
          <path
             class="st0"
             d="m -149.11671,-103.84265 c -0.0522,-0.0256 -0.1043,-0.0524 -0.15775,-0.0767 -0.15774,-0.0729 -0.32199,-0.1343 -0.46931,-0.22127 -0.0652,-0.0384 -0.14339,-0.13302 -0.13687,-0.19569 0.0248,-0.23662 -0.19555,-0.43486 -0.09,-0.68171 0.0939,-0.21616 0.22943,-0.37987 0.44193,-0.49754 0.13687,-0.0755 0.24768,-0.18673 0.41064,-0.23278 0.2855,-0.0806 0.52927,-0.0179 0.69354,0.22127 0.0847,0.12406 0.0378,0.26859 -0.008,0.38242 -0.0482,0.12023 -0.11863,0.25069 -0.28941,0.28778 -0.1069,0.023 -0.19424,0.13302 -0.30244,0.1586 -0.19945,0.0461 -0.40804,0.0588 -0.61271,0.0819 -0.0834,0.009 -0.16817,0.0115 -0.2516,0.0166"
             id="path10108"
             style="fill:none;stroke:#000000;stroke-width:0.258253;stroke-linecap:round;stroke-linejoin:round;stroke-miterlimit:10" />
          <path
             class="st0"
             d="m -151.58972,-105.31096 c -0.18641,-0.0166 -0.24377,0.0102 -0.24638,0.18546 -0.004,0.19057 0.0157,0.38626 0.0639,0.57044 0.0365,0.14069 0.15774,0.23533 0.3246,0.24173"
             id="path10148"
             style="fill:none;stroke:#000000;stroke-width:0.258253;stroke-linecap:round;stroke-linejoin:round;stroke-miterlimit:10" />
          <path
             class="st0"
             d="m -153.00024,-105.97476 c -0.16948,-0.23918 -0.45237,-0.27627 -0.73526,-0.16116 -0.27246,0.11 -0.4667,0.3044 -0.67267,0.48858 -0.19294,0.17139 -0.18121,0.63055 -0.0209,0.83392 0.22292,0.28522 0.5384,0.36324 0.86952,0.41312 0.17208,0.0256 0.34677,0.0333 0.52016,0.0486"
             id="path10146"
             style="fill:none;stroke:#000000;stroke-width:0.258253;stroke-linecap:round;stroke-linejoin:round;stroke-miterlimit:10" />
          <path
             class="st0"
             d="m -151.38504,-107.81398 c -0.0352,0.11767 -0.006,0.22894 0.03,0.34022 0.009,0.0281 0.001,0.0614 0.001,0.0921"
             id="path10180"
             style="fill:none;stroke:#000000;stroke-width:0.258253;stroke-linecap:round;stroke-linejoin:round;stroke-miterlimit:10" />
          <path
             class="st0"
             d="m -155.16559,-108.43302 c 0.0821,0.10488 0.0547,0.22638 0.0456,0.34022 -0.0496,0.60753 -0.086,1.21378 -0.10559,1.82386 -0.013,0.40161 0.0417,0.79427 0.0535,1.19076 0.005,0.14581 0.12384,0.2865 0.17729,0.43359 0.0665,0.18289 0.19163,0.30824 0.36372,0.39393"
             id="path10078"
             style="fill:none;stroke:#000000;stroke-width:0.258253;stroke-linecap:round;stroke-linejoin:round;stroke-miterlimit:10" />
          <path
             class="st0"
             d="m -158.15873,-105.1562 c -0.0144,-0.20592 0.0561,-0.37859 0.20336,-0.52695 0.09,-0.0895 0.26334,-0.13302 0.36241,-0.0588 0.20989,0.1586 0.42368,0.31464 0.61011,0.49881 0.0782,0.078 0.0978,0.21871 0.13036,0.33383 0.11733,0.41439 10e-4,0.76484 -0.34807,1.01553 -0.21901,0.15732 -0.47583,0.25964 -0.7522,0.29929 -0.0743,0.0102 -0.14731,0.0435 -0.22032,0.0435 -0.24768,0.001 -0.44453,-0.29162 -0.36371,-0.5244 0.0274,-0.078 0.0274,-0.16627 0.0508,-0.24557 0.0234,-0.0793 0.06,-0.15603 0.0939,-0.2315 0.0118,-0.0269 0.0443,-0.0512 0.0443,-0.078 0.004,-0.15987 0.1043,-0.19185 0.23857,-0.18545"
             id="path10134"
             style="fill:none;stroke:#000000;stroke-width:0.258253;stroke-linecap:round;stroke-linejoin:round;stroke-miterlimit:10" />
          <path
             class="st0"
             d="m -160.39577,-105.23294 c 0,0.14453 0,0.28906 0,0.43231"
             id="path10170"
             style="fill:none;stroke:#000000;stroke-width:0.258253;stroke-linecap:round;stroke-linejoin:round;stroke-miterlimit:10" />
          <path
             class="st0"
             d="m -160.90028,-105.31096 c -0.19294,0.0831 -0.23856,0.27755 -0.32721,0.43487 -0.0795,0.14069 -0.15122,0.29161 -0.18773,0.44765 -0.0561,0.23406 -0.11471,0.48474 0.0157,0.70729 0.15774,0.27243 0.49669,0.33254 0.84476,0.19953 0.2868,-0.10872 0.56578,-0.23662 0.82259,-0.41056 0.23987,-0.16372 0.35199,-0.42847 0.24899,-0.683 -0.0326,-0.0793 -0.0678,-0.15731 -0.1108,-0.2315 -0.16817,-0.29673 -0.43802,-0.40928 -0.77045,-0.41951 -0.17339,-0.005 -0.34677,-0.0294 -0.52015,-0.0448"
             id="path10080"
             style="fill:none;stroke:#000000;stroke-width:0.258253;stroke-linecap:round;stroke-linejoin:round;stroke-miterlimit:10" />
          <path
             class="st0"
             d="m -163.37328,-108.83463 c -0.0313,-0.0716 -0.0639,-0.14453 -0.0939,-0.21615 -0.0534,-0.12407 -0.15252,-0.16755 -0.28288,-0.15348 -0.0274,0.003 -0.06,0.0128 -0.0782,0.0307 -0.20076,0.21487 -0.43933,0.408 -0.59055,0.65357 -0.19033,0.3108 -0.43281,0.57939 -0.64139,0.87356 -0.25421,0.35557 -0.52928,0.69706 -0.78349,1.05391 -0.20466,0.2865 -0.42237,0.57044 -0.5749,0.88379 -0.12645,0.26092 -0.20467,0.55765 -0.23857,0.84671 -0.0938,0.77124 0.38849,1.10634 0.93862,1.20099 0.29071,0.0499 0.58664,0.0831 0.88126,0.0921 0.35068,0.0102 0.70396,-0.0307 1.05464,-0.023 0.42107,0.009 0.83824,-0.11 1.26062,-0.0358 0.009,0.001 0.0209,-0.009 0.0313,-0.0141"
             id="path10072"
             style="fill:none;stroke:#000000;stroke-width:0.258253;stroke-linecap:round;stroke-linejoin:round;stroke-miterlimit:10" />
          <path
             class="st0"
             d="m -163.40456,-114.12078 c 0.13166,0.0256 0.0743,0.13174 0.0587,0.18418 -0.0965,0.3044 0.0339,0.55125 0.17468,0.80705 0.13298,0.24046 0.47584,0.22766 0.66225,0.1036 0.15644,-0.10488 0.29332,-0.23661 0.44324,-0.35173 0.25291,-0.19441 0.29723,-0.47323 0.31288,-0.75845 0.013,-0.23022 -0.18382,-0.4873 -0.40805,-0.55637 -0.12514,-0.0384 -0.2516,-0.0729 -0.37805,-0.10871"
             id="path10144"
             style="fill:none;stroke:#000000;stroke-width:0.258253;stroke-linecap:round;stroke-linejoin:round;stroke-miterlimit:10" />
          <path
             class="st0"
             d="m -162.61717,-114.73854 c -0.0261,-0.1279 -0.13167,-0.0652 -0.16947,-0.041 -0.0769,0.0512 -0.13688,0.041 -0.20858,0.0102 -0.15644,-0.0652 -0.28159,-0.0115 -0.38588,0.10744"
             id="path10174"
             style="fill:none;stroke:#000000;stroke-width:0.258253;stroke-linecap:round;stroke-linejoin:round;stroke-miterlimit:10" />
          <path
             class="st0"
             d="m -162.917,-114.70784 c -0.0209,0.0614 -0.0378,0.12534 -0.0639,0.18545 -0.0248,0.0537 -0.0573,0.0947 -0.11993,0.13302 -0.10299,0.0626 -0.17339,0.17778 -0.25682,0.26987"
             id="path10176"
             style="fill:none;stroke:#000000;stroke-width:0.258253;stroke-linecap:round;stroke-linejoin:round;stroke-miterlimit:10" />
          <path
             class="st0"
             d="m -165.61032,-117.01134 c 0.1421,0.064 0.16687,0.2072 0.21641,0.32614 0.0978,0.23151 0.10168,0.4758 0.086,0.7252 -0.0118,0.17906 0.0326,0.36452 0.006,0.53975 -0.0404,0.26603 -0.15905,0.52439 -0.17339,0.78915 -0.0183,0.34788 -0.12645,0.70473 0.0352,1.05134 0.0521,0.11127 0.0756,0.23534 0.11211,0.35429"
             id="path10094"
             style="fill:none;stroke:#000000;stroke-width:0.258253;stroke-linecap:round;stroke-linejoin:round;stroke-miterlimit:10" />
          <path
             class="st0"
             d="m -168.10026,-116.45369 c -0.17078,-0.0742 -0.3207,0.004 -0.47192,0.0627 -0.0913,0.0358 -0.17729,0.0857 -0.26855,0.1215 -0.16686,0.0652 -0.33503,0.12535 -0.5045,0.18546 -0.0939,0.0332 -0.19164,0.0563 -0.28289,0.0947 -0.1434,0.0601 -0.31548,0.0167 -0.44584,0.13301 -0.0326,0.0281 -0.12124,-0.005 -0.18382,-0.0102"
             id="path10116"
             style="fill:none;stroke:#000000;stroke-width:0.258253;stroke-linecap:round;stroke-linejoin:round;stroke-miterlimit:10" />
          <path
             class="st0"
             d="m -162.06573,-118.44 c -0.11602,0.023 -0.23205,0.0422 -0.34677,0.0703 -0.34677,0.0857 -0.69483,0.17139 -1.039,0.26347 -0.22813,0.0601 -0.45105,0.1343 -0.67788,0.19953 -0.36763,0.10488 -0.73525,0.20464 -1.10158,0.3108 -0.0456,0.0128 -0.0873,0.0461 -0.12645,0.0767 -0.0834,0.0678 -0.17729,0.087 -0.28419,0.0972 -0.086,0.008 -0.16556,0.0716 -0.25291,0.0857 -0.29201,0.0473 -0.52406,0.23406 -0.80304,0.31335 -0.31678,0.0895 -0.63096,0.19313 -0.94513,0.2929 -0.0378,0.0115 -0.0756,0.0269 -0.10951,0.0461 -0.0887,0.0486 -0.1799,0.0755 -0.28419,0.0806 -0.0587,0.004 -0.11603,0.0473 -0.17339,0.0729"
             id="path10100"
             style="fill:none;stroke:#000000;stroke-width:0.258253;stroke-linecap:round;stroke-linejoin:round;stroke-miterlimit:10" />
          <path
             class="st0"
             d="m -161.04238,-118.46302 c -0.28419,-0.005 -0.56708,-0.0153 -0.84996,-0.0115 -0.0521,0.001 -0.14862,-0.0153 -0.15775,0.0883"
             id="path10164"
             style="fill:none;stroke:#000000;stroke-width:0.258253;stroke-linecap:round;stroke-linejoin:round;stroke-miterlimit:10" />
          <path
             class="st0"
             d="m -154.67802,-118.04606 c 0.008,0.12406 -0.0704,0.25452 0.0313,0.37091"
             id="path10182"
             style="fill:none;stroke:#000000;stroke-width:0.258253;stroke-linecap:round;stroke-linejoin:round;stroke-miterlimit:10" />
          <path
             class="st0"
             d="m -154.58286,-117.66747 c -0.16165,0.008 -0.17078,0.16115 -0.16295,0.23917 0.0156,0.16883 -0.0678,0.30441 -0.11211,0.44765 -0.12776,0.40673 -0.23205,0.81729 -0.29202,1.23809"
             id="path10158"
             style="fill:none;stroke:#000000;stroke-width:0.258253;stroke-linecap:round;stroke-linejoin:round;stroke-miterlimit:10" />
          <path
             class="st0"
             d="m -153.7016,-115.66582 c -0.18903,0.0102 -0.37806,0.0256 -0.56709,0.0294 -0.16816,0.003 -0.33633,-0.001 -0.5032,-0.0167 -0.0965,-0.009 -0.18903,-0.0499 -0.28419,-0.0742 -0.073,-0.0179 -0.11993,-0.0255 -0.16295,0.0742 -0.17208,0.39777 -0.21771,0.81601 -0.24509,1.23936 -0.0118,0.17523 -0.0157,0.35045 -0.0157,0.52567 10e-4,0.32103 0.24117,0.50777 0.56709,0.48347 0.29983,-0.023 0.56447,-0.11511 0.82129,-0.26348 0.1447,-0.0831 0.31547,-0.1215 0.4693,-0.19185 0.0613,-0.0281 0.1069,-0.0895 0.15905,-0.13558"
             id="path10090"
             style="fill:none;stroke:#000000;stroke-width:0.258253;stroke-linecap:round;stroke-linejoin:round;stroke-miterlimit:10" />
          <path
             class="st0"
             d="m -151.44762,-114.83191 c 0.20598,0.15093 0.3559,0.35045 0.42108,0.58835 0.10299,0.37602 0.41846,0.56532 0.68441,0.80066 0.0169,0.0153 0.0665,0.0128 0.0913,0 0.13037,-0.0614 0.27116,-0.10233 0.35068,-0.24301 0.0665,-0.11767 0.16426,-0.21872 0.24899,-0.32615"
             id="path10112"
             style="fill:none;stroke:#000000;stroke-width:0.258253;stroke-linecap:round;stroke-linejoin:round;stroke-miterlimit:10" />
          <path
             class="st0"
             d="m -149.78678,-115.03271 c -0.008,0.0358 -0.003,0.087 -0.0261,0.10615 -0.12906,0.11 -0.15774,0.25069 -0.13819,0.40417 0.0104,0.0831 0.0195,0.17906 0.0652,0.24557 0.14079,0.20592 0.34025,0.33511 0.59446,0.37347 0.29462,0.0448 0.58664,0.1036 0.88256,0.1343 0.16034,0.0166 0.32461,-0.0218 0.48756,-0.023 0.0782,0 0.15774,0.0281 0.23596,0.0435"
             id="path10140"
             style="fill:none;stroke:#000000;stroke-width:0.258253;stroke-linecap:round;stroke-linejoin:round;stroke-miterlimit:10" />
          <path
             class="st0"
             d="m -149.44002,-115.60443 c 0.0443,-0.0461 0.086,-0.0959 0.13558,-0.13813 0.0248,-0.0218 0.0626,-0.032 0.0939,-0.0473 0.15122,-0.0793 0.34286,0.0307 0.36372,0.20081 0.0482,0.37474 -0.11212,0.6638 -0.36111,0.92983 -0.14079,0.15092 -0.25421,0.32743 -0.38066,0.49243"
             id="path10150"
             style="fill:none;stroke:#000000;stroke-width:0.258253;stroke-linecap:round;stroke-linejoin:round;stroke-miterlimit:10" />
          <path
             class="st0"
             d="m -149.76202,-115.29491 c -0.0157,0.0461 -0.0326,0.0921 -0.0469,0.13941 -0.0195,0.0678 -0.004,0.11128 0.0782,0.10872"
             id="path10186"
             style="fill:none;stroke:#000000;stroke-width:0.258253;stroke-linecap:round;stroke-linejoin:round;stroke-miterlimit:10" />
          <path
             class="st0"
             d="m -151.38504,-115.26422 c 0.0456,0.10872 -0.0209,0.34534 -0.1082,0.43359 -0.0913,0.0921 -0.1786,0.18801 -0.2516,0.29417 -0.10821,0.15476 -0.20207,0.31848 -0.30114,0.47835 -0.0547,0.0883 -0.12254,0.15988 -0.23597,0.17011"
             id="path10154"
             style="fill:none;stroke:#000000;stroke-width:0.258253;stroke-linecap:round;stroke-linejoin:round;stroke-miterlimit:10" />
          <path
             class="st0"
             d="m -152.10986,-118.26221 c 0.0561,0.11894 0.0873,0.24045 0.0482,0.37091 -0.004,0.0141 -0.001,0.0307 0,0.0461 0.0222,0.57171 -0.0456,1.13703 -0.1408,1.6998 -0.0613,0.3658 -0.12906,0.73032 -0.16947,1.09739 -0.0313,0.2865 -0.0261,0.57683 -0.0339,0.86461 -0.001,0.0409 0.013,0.0844 0.0313,0.12279 0.043,0.0947 0.10038,0.18034 0.0639,0.29545 -0.0209,0.0665 0.0274,0.11383 0.0913,0.13814"
             id="path10098"
             style="fill:none;stroke:#000000;stroke-width:0.258253;stroke-linecap:round;stroke-linejoin:round;stroke-miterlimit:10" />
          <path
             class="st0"
             d="m -131.94522,-118.01536 c 0.15773,0.0946 0.16165,0.24684 0.15773,0.40161"
             id="path10172"
             style="fill:none;stroke:#000000;stroke-width:0.258253;stroke-linecap:round;stroke-linejoin:round;stroke-miterlimit:10" />
          <path
             class="st0"
             d="m -129.74729,-118.09211 c -0.0104,0.12663 -0.0404,0.23534 -0.12646,0.34534 -0.086,0.10871 -0.11863,0.26091 -0.16425,0.39649 -0.13298,0.39521 -0.11864,0.79938 -0.0704,1.20611 0.004,0.0332 0.0926,0.13046 -0.0417,0.13813"
             id="path10152"
             style="fill:none;stroke:#000000;stroke-width:0.258253;stroke-linecap:round;stroke-linejoin:round;stroke-miterlimit:10" />
        </g>
        <g
           transform="translate(-93,-19.812)"
           id="g3131" />
        <g
           transform="translate(-93,-38.5103)"
           id="g3107" />
        <g
           transform="translate(-93,-44.743)"
           id="g3105" />
        <g
           transform="translate(-93,-69.6741)"
           id="g2963" />
        <g
           transform="translate(-93,-107.071)"
           id="g2687" />
        <g
           transform="translate(-93,-125.769)"
           id="g2613" />
      </g>
      <g
         inkscape:label="Hershey Text"
         style="fill:none;stroke:#000000;stroke-linecap:round;stroke-linejoin:round"
         transform="matrix(0.38997196,0,0,0.47620583,-9.6490641,-1.3727541)"
         id="g5939">
        <g
           transform="translate(25.6664,17.926)"
           id="g5937" />
      </g>
      <text
         xml:space="preserve"
         id="text5423"
         style="font-style:normal;font-weight:normal;font-size:10.68469999999999942px;line-height:1.25;font-family:sans-serif;white-space:pre;shape-inside:url(#rect5425);fill:#000000;fill-opacity:1;stroke:none;"><tspan
           x="-0.44335938"
           y="19.085866"><tspan>
</tspan></tspan><tspan
           style="visibility:hidden"
           x="-0.44335938"
           y="31.111257"><tspan>
</tspan></tspan><tspan
           style="visibility:hidden"
           x="-0.44335938"
           y="44.765837"><tspan> </tspan></tspan><tspan
           style="visibility:hidden"
           x="-0.44335938"
           y="58.420417"><tspan
             dx="0 6.5735946 6.4901204 6.7614117 4.5702133 3.75634 6.6570702 6.4901199 6.7614098 6.7614136 4.2154465 6.3231735">Your bounty,</tspan><tspan
             dx="3.8815536"> </tspan></tspan><tspan
           style="visibility:hidden"
           x="-0.44335938"
           y="71.776292"><tspan>
</tspan></tspan><tspan
           style="visibility:hidden"
           x="-0.44335938"
           y="85.132167"><tspan
             dx="0 6.5944633 6.7614117 6.427515 6.7614117 6.3231716 3.75634 6.3231735 6.4901199 6.7614098 3.75634 5.5719032 6.4901199 3.75634 10.39254 6.7614136 5.571907 6.7614059 3.75634 3.75634 6.4901199 4.5702133 3.75634 6.3231735 6.4901276 6.7613983 3.7563477 7.3248596 6.4901276 6.7614136 6.7613983 4.2154541 2.9424744 3.7563324 6.7614136 2.9424591 3.7563477 6.4901123 4.5702209 6.657074 6.3648987 4.5702209 3.881546">Thank you so much for you Bountiful order.
</tspan></tspan><tspan
           style="visibility:hidden"
           x="-0.44335938"
           y="98.488042"><tspan>
</tspan></tspan><tspan
           style="visibility:hidden"
           x="-0.44335938"
           y="112.14262"><tspan
             dx="0 4.5076079 6.7614121 5.5719032 2.9424667 6.7614117 6.6570683 6.3649101 6.6570663 3.75634 2.9424667 6.7614136 3.75634 6.3231735 6.4901199 6.7614059 4.5702209 3.7563324 6.4901276 4.5702133 6.6570663 6.3649063 4.5702133 3.75634 4.2154465 6.4901276 6.6570587 6.4275208 6.3231659 3.7563477 2.9424591 5.5719147 3.881546">Included in your order today is, </tspan><tspan
             dx="3.7563477"> </tspan></tspan><tspan
           style="visibility:hidden"
           x="-0.44335938"
           y="125.7972"><tspan> </tspan></tspan><tspan
           style="visibility:hidden"
           x="-0.44335938"
           y="139.45178"><tspan
             dx="0 7.3039942 6.4901209 10.39254 6.3649082 3.75634 8.7439232 6.4901199 6.7614136 6.6570702 6.3649101 4.5702133 3.75634 6.7614059 2.9424667 3.75634 6.7614136 6.4275131 6.7614136 6.6570663 3.75634 10.39254 6.4275208 6.6570587 6.3649139 3.7563477 3.7563324 4.5702209 6.3648987 5.5719147 6.7613983 3.7563477 6.657074 6.4275055 5.5719147 4.2154388 6.4275208 3.7563324 6.657074 6.3231659 3.7563477 7.4291992 6.4901276 6.657074 6.3648987 4.5702209 4.2154541 3.7563171 6.4275208 6.7614136 6.657074 3.7563477 6.7614136 6.6570435 6.7614136 6.4275208 4.5702209 6.657074 6.4901123">Some wonderful hand made fresh pasta by Robert and Eduardo.</tspan><tspan
             dx="3.8815613"> </tspan></tspan><tspan
           style="visibility:hidden"
           x="-0.44335938"
           y="153.10636"><tspan
             dx="0 4.5076079 4.2154479 3.75634 5.5719042 6.7614117 6.4901199 6.7614117 2.9424667 6.6570702 3.75634 2.9424629 6.4275169 5.571907 4.2154465 3.75634 6.4275131 6.6570663 6.4901199 6.7614136 4.2154465 3.75634 6.803154 3.75634 6.6570663 6.4275131 6.3231659 5.5719147 3.7563324 6.4275208 6.7614136 6.6570587 3.7563477 6.4901123 3.7563477 3.7563324 5.5719147 6.4901123 6.7614136 4.5702209 5.5718994 6.3649139 3.7563324 6.3231812 6.4901123 6.7614136 3.7563324 5.5719147 6.4275208 6.7614136 3.7563171 3.7563477 4.5702209 6.3648987 6.3649292 5.6136169 6.3649292 3.7563171 2.9424744 4.2154541 3.8815613 3.7563171 6.657074 6.7614136 4.2154541 3.7563477 8.743927 6.3648987 3.7563477 5.5718994 6.7614136 6.657074 6.6570435 6.3649292 5.5718994 4.2154541 3.7563171 6.3231812 6.4901123 6.7614136 3.7563477 6.3648987 6.4275208 4.2154541 3.7563477 2.9424744 4.2154236 3.7563477 6.4275208 5.5718994 3.7563477 5.5718994 6.4901123 6.4901123 6.7614136 3.7563477 6.4274902 5.5719604 3.7562866 6.6571045 6.4901123 5.5718994 5.5718994 2.9424438 6.6571045 2.9424438 6.3649292">It should last about 3 days and of course you can freeze it, but we suggest you eat it as soon as possible.</tspan><tspan
             dx="3.8815308"> </tspan></tspan><tspan
           style="visibility:hidden"
           x="-0.44335938"
           y="166.76094"><tspan> </tspan></tspan><tspan
           style="visibility:hidden"
           x="-0.44335938"
           y="180.41552"><tspan
             dx="0 6.5735946 6.4901204 6.7614117 4.5702133 3.75634 6.4901199 4.5702133 6.6570702 6.3649063 4.5702133 3.75634 10.392544 6.3649063 6.4275131 6.7614136 5.571907 3.75634 6.4275131 3.75634 2.9424667 6.4901199 4.2154465 3.75634 4.2154465 6.4901276 3.7563324 6.4901276 6.7614136 4.5702057 3.7563477 6.6570587 4.5702209 6.4901123 8.743927 2.9424591 6.7614136 6.657074 3.7563324 5.5719147 6.7614136 6.3648987 3.7563477 3.7563324 5.5719147 6.4901123 10.392532 10.392548 6.7614136 6.7614136 2.9424744 4.2154541 6.3231506 3.7563477 6.4275208 6.7614136 6.657074 3.7563171 8.743927 6.3649292 3.7563171 2.9424744 6.4901123 6.4901428 6.3231506 3.7563477 3.7563477 6.4901123 4.5702209 8.743927 6.4274902 4.5702209 6.657074 3.7563477 4.2154541 6.4901123 3.7563477 6.6570435 6.3649292 2.9424438 2.9424744 6.3231812 6.3648987 4.5702209 2.9424744 6.7614136 6.657074 3.7563171 4.2154541 6.4901123 3.7563477 6.3231812 6.4901123 6.7613831 3.7563477 6.4275513 6.6570435 6.4275513 2.9424438 6.7614136">Your order means a lot to our growing chef community and we look forward to delivering to you again,</tspan><tspan
             dx="3.8815308"> </tspan></tspan><tspan
           style="visibility:hidden"
           x="-0.44335938"
           y="194.0701"><tspan> </tspan></tspan><tspan
           style="visibility:hidden"
           x="-0.44335938"
           y="207.72468"><tspan
             dx="0 7.3248625 6.4901209 6.7614117 3.75634 6.427515 6.6570663 6.6570702 6.3649101 4.2154465 2.9424667 4.2154465 6.3649101">Bon appetite,</tspan><tspan
             dx="3.8815536"> </tspan></tspan><tspan
           style="visibility:hidden"
           x="-0.44335938"
           y="221.37926"><tspan
             dx="0 6.5944633 6.7614117 6.3649082 3.75634 7.3248634 6.4901199 6.7614136 6.7614098 4.2154465 2.9424667 3.75634 6.7614098 2.9424667 3.75634 6.5944672 6.3649063 6.4275131">The Bountiful Team</tspan><tspan
             dx="10.39254"> </tspan></tspan><tspan
           style="visibility:hidden"
           x="-0.44335938"
           y="235.03384"><tspan> </tspan></tspan><tspan
           style="visibility:hidden"
           x="-0.44335938"
           y="248.68842"><tspan
             dx="0 7.3039942 6.7614117 6.3231726 3.75634 6.6570683 6.7614098 6.3649101 5.5719032 4.2154503 2.9424667 6.4901199 6.7614136 5.5718994 3.8815536 3.75634 6.6570663 4.5702133 6.4901199 6.657074 2.9424667 6.3649063 10.39254 5.571907 3.7563324 6.4901276 4.5702057 3.7563477 5.5718994 6.7614136 6.657074 6.6570587 6.3649139 5.5718994 4.2154541 2.9424591 6.4901276 6.7614136 5.5718994 3.881546">Any questions, problems or suggestions, </tspan><tspan
             dx="3.7563477"> </tspan></tspan><tspan
           style="visibility:hidden"
           x="-0.44335938"
           y="262.04429"><tspan
             dx="0 8.2848158 6.3649092 4.2154484 3.75634 2.9424648 6.7614117 3.75634 4.2154503 6.4901199 6.7614098 5.5719032 6.7614136 3.75634 6.8031464 6.803154 6.8031464 6.8031464 6.8031464 3.75634 6.803154 6.8031464 6.8031464 6.803154 6.8031464 6.8031464">Get in touch 07930 884657t</tspan></tspan></text>
    </g>
    <g
       transform="matrix(0.98111,0,0,1,15.919792,68.162088)"
       id="g22101"
       style="fill:none;stroke:#000000;stroke-linecap:round;stroke-linejoin:round" />
    <text
       xml:space="preserve"
       id="text5133"
       style="fill:black;fill-opacity:1;line-height:1.25;stroke:none;font-family:sans-serif;font-style:normal;font-weight:normal;font-size:10.58333333000000032px;white-space:pre;shape-inside:url(#rect5135);" />
  </g>
  <metadata
     id="metadata5">
    <rdf:RDF>
      <cc:Work
         rdf:about="">
        <dc:format>image/svg+xml</dc:format>
        <dc:type
           rdf:resource="http://purl.org/dc/dcmitype/StillImage" />
        <dc:title></dc:title>
      </cc:Work>
    </rdf:RDF>
  </metadata>
  <sodipodi:namedview
     id="base"
     pagecolor="#ffffff"
     bordercolor="#666666"
     borderopacity="1.0"
     inkscape:pageopacity="0.0"
     inkscape:pageshadow="2"
     inkscape:zoom="0.98901497"
     inkscape:cx="144.20756"
     inkscape:cy="398.95948"
     inkscape:document-units="mm"
     inkscape:current-layer="layer1"
     inkscape:document-rotation="0"
     showgrid="false"
     inkscape:window-width="1876"
     inkscape:window-height="1005"
     inkscape:window-x="44"
     inkscape:window-y="80"
     inkscape:window-maximized="0"
     showguides="false" />
  <defs
     id="defs2">
    <rect
       x="-123.06015"
       y="141.51918"
       width="81.059188"
       height="49.224061"
       id="rect5135" />
    <rect
       x="-105.01837"
       y="-39.171957"
       width="45.569129"
       height="28.635499"
       id="rect3048" />
    <rect
       x="-167.56292"
       y="-127.40743"
       width="80.333956"
       height="25.10769"
       id="rect3174" />
    <rect
       x="-140.30178"
       y="-111.34475"
       width="31.801756"
       height="9.16731"
       id="rect4413" />
    <rect
       x="-92.999551"
       y="-136.55059"
       width="92.549025"
       height="145.79682"
       id="rect2480" />
    <rect
       x="27.214287"
       y="48.380951"
       width="55.940475"
       height="72.571426"
       id="rect837" />
    <rect
       x="-0.44256446"
       y="9.3373156"
       width="51.790344"
       height="12.026515"
       id="rect5425" />
    <rect
       x="-0.44256446"
       y="9.3373156"
       width="51.790344"
       height="12.026515"
       id="rect15625" />
  </defs>
  <WCB
     layer="-1"
     node="0"
     lastpath="0"
     lastpathnc="0"
     lastknownposx="0"
     lastknownposy="0"
     pausedposx="0"
     pausedposy="0"
     randseed="0"
     row="0"
     application="Axidraw" />
</svg>
