<?xml version="1.0" encoding="UTF-8" standalone="no"?>
<svg
   xmlns:dc="http://purl.org/dc/elements/1.1/"
   xmlns:cc="http://creativecommons.org/ns#"
   xmlns:rdf="http://www.w3.org/1999/02/22-rdf-syntax-ns#"
   xmlns:svg="http://www.w3.org/2000/svg"
   xmlns="http://www.w3.org/2000/svg"
   xmlns:sodipodi="http://sodipodi.sourceforge.net/DTD/sodipodi-0.dtd"
   xmlns:inkscape="http://www.inkscape.org/namespaces/inkscape"
   inkscape:version="1.0.2 (e86c8708, 2021-01-15)"
   sodipodi:docname="cookies_envelope.svg"
   id="svg8"
   version="1.1"
   viewBox="0 0 148 210"
   height="210mm"
   width="148mm">
  <g
     inkscape:label="Layer 1"
     inkscape:groupmode="layer"
     id="layer1">
    <g
       transform="matrix(0.98111,0,0,1,15.919792,68.162088)"
       id="g22101"
       style="fill:none;stroke:#000000;stroke-linecap:round;stroke-linejoin:round" />
    <g
       inkscape:label="Hershey Text"
       style="fill:none;stroke:#000000;stroke-linecap:round;stroke-linejoin:round"
       id="g5326"
       transform="translate(148.78101,6.7802094)">
      <g
         transform="translate(-123.061,151.819)"
         id="g5324">
        <path
           d="m 189,441 -63,31 -31.5,64 v 31 l 31.5,63 63,32 h 31 l 64,-32 31,-63 V 504 L 284,378 252,284 220,158 V 94.5 L 252,31.5 284,0 h 62 l 64,31.5 62,63 64,94.5 31,63 63,189 m 63,221 -63,-221 -94,-315 -64,-189 -62,-157 -64,-126 -62,-32 -32,32 v 62 l 32,95 62,94.5 95,94.5 95,63 157,95"
           style="stroke-width:0.1707in"
           transform="scale(0.0112889,-0.0112889)"
           id="path5304" />
        <path
           d="M 220,284 H 158 L 94.5,252 63,220 31.5,158 V 94.5 L 63,31.5 126,0 h 63 l 63,31.5 32,31.5 31,63 v 63 l -31,63 -64,32 -31,-32 v -63 l 31,-63 64,-31.5 h 94 l 63,31.5 31,32"
           style="stroke-width:0.1707in"
           transform="matrix(0.0112889,0,0,-0.0112889,8.17316,0)"
           id="path5306" />
        <path
           d="m 31.5,158 63,126 -63,-189.5 v -63 L 63,0 h 63 l 63,31.5 63,63 63,94.5 m 31,95 -62,-189.5 v -63 L 315,0 h 31 l 64,31.5 31,31.5 63,95"
           style="stroke-width:0.1707in"
           transform="matrix(0.0112889,0,0,-0.0112889,13.1516,0)"
           id="path5308" />
        <path
           d="m 31.5,158 63,94 31.5,63 v -63 h 94 l 32,-32 V 158 L 220,63 V 31.5 L 252,0 h 32 l 62,31.5 32,31.5 63,95"
           style="stroke-width:0.1707in"
           transform="matrix(0.0112889,0,0,-0.0112889,18.4799,0)"
           id="path5310" />
        <path
           d="m 31.5,158 63,94 94.5,158 31,62 32,95 v 63 L 220,662 158,630 126,567 94.5,441 63,220 V 31.5 L 94.5,0 H 126 l 63,31.5 63,63 32,94.5 v 95 l 31,-126 31,-32 h 64 l 62,32"
           style="stroke-width:0.1707in"
           transform="matrix(0.0112889,0,0,-0.0112889,27.3756,0)"
           id="path5312" />
        <path
           d="M 220,284 H 158 L 94.5,252 63,220 31.5,158 V 94.5 L 63,31.5 126,0 h 63 l 63,31.5 32,31.5 31,63 v 63 l -31,63 -64,32 -31,-32 v -63 l 31,-63 64,-31.5 h 94 l 63,31.5 31,32"
           style="stroke-width:0.1707in"
           transform="matrix(0.0112889,0,0,-0.0112889,32.354,0)"
           id="path5314" />
        <path
           d="m 31.5,158 63,126 -63,-189.5 v -63 L 63,0 h 63 l 63,31.5 63,63 63,94.5 m 31,95 -62,-189.5 v -63 L 315,0 h 31 l 64,31.5 31,31.5 63,95"
           style="stroke-width:0.1707in"
           transform="matrix(0.0112889,0,0,-0.0112889,37.3324,0)"
           id="path5316" />
        <path
           d="m 31.5,158 63,94 63.5,32 31,-32 V 220 L 158,94.5 126,0 m 32,94.5 31,63.5 63,94 63,32 h 63 l 32,-32 V 189 L 378,94.5 v -63 L 410,0 h 31 l 63,31.5 32,31.5 62,95"
           style="stroke-width:0.1707in"
           transform="matrix(0.0112889,0,0,-0.0112889,42.6608,0)"
           id="path5318" />
        <path
           d="m 31.5,158 63,94 63.5,126 M 252,662 63,94.5 v -63 L 94.5,0 H 158 l 62,31.5 32,31.5 63,95 M 63,410 h 221"
           style="stroke-width:0.1707in"
           transform="matrix(0.0112889,0,0,-0.0112889,49.0616,0)"
           id="path5320" />
        <path
           d="m 31.5,158 63,126 -63,-189.5 v -63 L 63,0 h 63 l 63,31.5 63,63 63,94.5 m 31,95 -188,-568 -32,-62 -63,-32 -31.5,32 v 62 l 31.5,95 95,94.5 94,63 63,31.5 95,63 94,95"
           style="stroke-width:0.1707in"
           transform="matrix(0.0112889,0,0,-0.0112889,52.2676,0)"
           id="path5322" />
      </g>
    </g>
  </g>
  <metadata
     id="metadata5">
    <rdf:RDF>
      <cc:Work
         rdf:about="">
        <dc:format>image/svg+xml</dc:format>
        <dc:type
           rdf:resource="http://purl.org/dc/dcmitype/StillImage" />
        <dc:title></dc:title>
      </cc:Work>
    </rdf:RDF>
  </metadata>
  <sodipodi:namedview
     id="base"
     pagecolor="#ffffff"
     bordercolor="#666666"
     borderopacity="1.0"
     inkscape:pageopacity="0.0"
     inkscape:pageshadow="2"
     inkscape:zoom="0.98901497"
     inkscape:cx="180.60742"
     inkscape:cy="596.12535"
     inkscape:document-units="mm"
     inkscape:current-layer="layer1"
     inkscape:document-rotation="0"
     showgrid="false"
     inkscape:window-width="1876"
     inkscape:window-height="1005"
     inkscape:window-x="44"
     inkscape:window-y="80"
     inkscape:window-maximized="0"
     showguides="false" />
  <defs
     id="defs2">
    <rect
       x="-123.06015"
       y="141.51918"
       width="81.059188"
       height="49.224061"
       id="rect5135" />
    <rect
       x="-105.01837"
       y="-39.171957"
       width="45.569129"
       height="28.635499"
       id="rect3048" />
    <rect
       x="-167.56292"
       y="-127.40743"
       width="80.333956"
       height="25.10769"
       id="rect3174" />
    <rect
       x="-140.30178"
       y="-111.34475"
       width="31.801756"
       height="9.16731"
       id="rect4413" />
    <rect
       x="-92.999551"
       y="-136.55059"
       width="92.549025"
       height="145.79682"
       id="rect2480" />
    <rect
       x="27.214287"
       y="48.380951"
       width="55.940475"
       height="72.571426"
       id="rect837" />
    <rect
       x="-0.44256446"
       y="9.3373156"
       width="51.790344"
       height="12.026515"
       id="rect5425" />
    <rect
       x="-0.44256446"
       y="9.3373156"
       width="51.790344"
       height="12.026515"
       id="rect15625" />
  </defs>
  <WCB
     layer="-1"
     node="0"
     lastpath="0"
     lastpathnc="0"
     lastknownposx="0"
     lastknownposy="0"
     pausedposx="0"
     pausedposy="0"
     randseed="0"
     row="0"
     application="Axidraw" />
</svg>
